<svg xmlns="http://www.w3.org/2000/svg" width="15" height="14.495"><g data-name="Grupo 2693" fill="#2de0a5"><path data-name="Caminho 10288" d="M3.75 3.75V.667A.667.667 0 014.417 0H7.5v3.75z"/><path data-name="Caminho 10289" d="M7.5 3.75V0h3.083a.666.666 0 01.667.667V3.75z"/><path data-name="Caminho 10290" d="M0 6.995V3.912a.666.666 0 01.667-.667H3.75v3.75z"/><path data-name="Caminho 10291" d="M11.25 6.995v-3.75h3.083a.666.666 0 01.667.667v3.083z"/><path data-name="Caminho 10292" d="M0 10.078V6.995h3.75v3.75H.667A.667.667 0 010 10.078z"/><path data-name="Caminho 10293" d="M11.25 10.745v-3.75H15v3.083a.667.667 0 01-.667.667z"/><path data-name="Caminho 10294" d="M3.75 13.827v-3.083H7.5v3.75H4.417a.667.667 0 01-.667-.667z"/><path data-name="Caminho 10295" d="M7.5 14.494v-3.75h3.75v3.083a.666.666 0 01-.667.667z"/></g></svg>